999
"DXF R12 Output" (www.mydxf.blogspot.com)
 0 
SECTION
 2 
HEADER
 9 
$ACADVER
 1 
AC1009
 9 
$EXTMIN
 10 
 0 
 20 
 0 
 9 
$EXTMAX
 10 
 8.5 
 20 
 11 
 0 
ENDSEC
 0 
SECTION
 2 
ENTITIES
0
LINE
8
Layer 1
10
88.335500
20
23.989000
11
72.531100
21
23.989000
0
LINE
8
Layer 1
10
72.531100
20
23.989000
11
72.116862
21
27.551577
0
LINE
8
Layer 1
10
72.116862
20
27.551577
11
71.333860
21
30.631042
0
LINE
8
Layer 1
10
71.333860
20
30.631042
11
70.236666
21
33.229129
0
LINE
8
Layer 1
10
70.236666
20
33.229129
11
68.879850
21
35.347577
0
LINE
8
Layer 1
10
68.879850
20
35.347577
11
67.317981
21
36.988120
0
LINE
8
Layer 1
10
67.317981
20
36.988120
11
65.605631
21
38.152495
0
LINE
8
Layer 1
10
65.605631
20
38.152495
11
63.797369
21
38.842439
0
LINE
8
Layer 1
10
63.797369
20
38.842439
11
61.947766
21
39.059688
0
LINE
8
Layer 1
10
61.947766
20
39.059688
11
60.111393
21
38.805977
0
LINE
8
Layer 1
10
60.111393
20
38.805977
11
58.342818
21
38.083044
0
LINE
8
Layer 1
10
58.342818
20
38.083044
11
56.696614
21
36.892624
0
LINE
8
Layer 1
10
56.696614
20
36.892624
11
55.227350
21
35.236455
0
LINE
8
Layer 1
10
55.227350
20
35.236455
11
53.989596
21
33.116271
0
LINE
8
Layer 1
10
53.989596
20
33.116271
11
53.037923
21
30.533810
0
LINE
8
Layer 1
10
53.037923
20
30.533810
11
52.426901
21
27.490807
0
LINE
8
Layer 1
10
52.426901
20
27.490807
11
52.211100
21
23.989000
0
LINE
8
Layer 1
10
52.211100
20
23.989000
11
34.431100
21
23.989000
0
LINE
8
Layer 1
10
34.431100
20
23.989000
11
34.257302
21
29.883210
0
LINE
8
Layer 1
10
34.257302
20
29.883210
11
33.913839
21
36.148823
0
LINE
8
Layer 1
10
33.913839
20
36.148823
11
33.540611
21
42.614853
0
LINE
8
Layer 1
10
33.540611
20
42.614853
11
33.277515
21
49.110313
0
LINE
8
Layer 1
10
33.277515
20
49.110313
11
33.264451
21
55.464214
0
LINE
8
Layer 1
10
33.264451
20
55.464214
11
33.641316
21
61.505570
0
LINE
8
Layer 1
10
33.641316
20
61.505570
11
34.019691
21
64.355611
0
LINE
8
Layer 1
10
34.019691
20
64.355611
11
34.548010
21
67.063395
0
LINE
8
Layer 1
10
34.548010
20
67.063395
11
35.243760
21
69.607549
0
LINE
8
Layer 1
10
35.243760
20
69.607549
11
36.124430
21
71.966700
0
LINE
8
Layer 1
10
36.124430
20
71.966700
11
36.934864
21
73.592013
0
LINE
8
Layer 1
10
36.934864
20
73.592013
11
37.915189
21
75.133982
0
LINE
8
Layer 1
10
37.915189
20
75.133982
11
39.055876
21
76.592277
0
LINE
8
Layer 1
10
39.055876
20
76.592277
11
40.347397
21
77.966566
0
LINE
8
Layer 1
10
40.347397
20
77.966566
11
41.780221
21
79.256519
0
LINE
8
Layer 1
10
41.780221
20
79.256519
11
43.344820
21
80.461805
0
LINE
8
Layer 1
10
43.344820
20
80.461805
11
46.831226
21
82.617055
0
LINE
8
Layer 1
10
46.831226
20
82.617055
11
50.730381
21
84.429668
0
LINE
8
Layer 1
10
50.730381
20
84.429668
11
54.966053
21
85.897000
0
LINE
8
Layer 1
10
54.966053
20
85.897000
11
59.462009
21
87.016405
0
LINE
8
Layer 1
10
59.462009
20
87.016405
11
64.142015
21
87.785237
0
LINE
8
Layer 1
10
64.142015
20
87.785237
11
68.929839
21
88.200851
0
LINE
8
Layer 1
10
68.929839
20
88.200851
11
73.749248
21
88.260601
0
LINE
8
Layer 1
10
73.749248
20
88.260601
11
78.524008
21
87.961842
0
LINE
8
Layer 1
10
78.524008
20
87.961842
11
83.177887
21
87.301927
0
LINE
8
Layer 1
10
83.177887
20
87.301927
11
87.634652
21
86.278211
0
LINE
8
Layer 1
10
87.634652
20
86.278211
11
91.818069
21
84.888048
0
LINE
8
Layer 1
10
91.818069
20
84.888048
11
95.651906
21
83.128793
0
LINE
8
Layer 1
10
95.651906
20
83.128793
11
99.059930
21
80.997800
0
LINE
8
Layer 1
10
99.059930
20
80.997800
11
100.460636
21
79.862779
0
LINE
8
Layer 1
10
100.460636
20
79.862779
11
101.724833
21
78.610266
0
LINE
8
Layer 1
10
101.724833
20
78.610266
11
102.858889
21
77.246462
0
LINE
8
Layer 1
10
102.858889
20
77.246462
11
103.869169
21
75.777569
0
LINE
8
Layer 1
10
103.869169
20
75.777569
11
105.543870
21
72.549322
0
LINE
8
Layer 1
10
105.543870
20
72.549322
11
106.799869
21
68.975134
0
LINE
8
Layer 1
10
106.799869
20
68.975134
11
107.688097
21
65.104617
0
LINE
8
Layer 1
10
107.688097
20
65.104617
11
108.259487
21
60.987381
0
LINE
8
Layer 1
10
108.259487
20
60.987381
11
108.564970
21
56.673039
0
LINE
8
Layer 1
10
108.564970
20
56.673039
11
108.655480
21
52.211200
0
LINE
8
Layer 1
10
108.655480
20
52.211200
11
108.828341
21
43.409396
0
LINE
8
Layer 1
10
108.828341
20
43.409396
11
108.937702
21
33.866800
0
LINE
8
Layer 1
10
108.937702
20
33.866800
11
109.029479
21
33.494950
0
LINE
8
Layer 1
10
109.029479
20
33.494950
11
109.290920
21
33.119793
0
LINE
8
Layer 1
10
109.290920
20
33.119793
11
110.112451
21
32.356911
0
LINE
8
Layer 1
10
110.112451
20
32.356911
11
110.981607
21
31.572864
0
LINE
8
Layer 1
10
110.981607
20
31.572864
11
111.477702
21
30.762360
0
LINE
8
Layer 1
10
111.477702
20
30.762360
11
111.542966
21
28.771811
0
LINE
8
Layer 1
10
111.542966
20
28.771811
11
111.407147
21
26.902971
0
LINE
8
Layer 1
10
111.407147
20
26.902971
11
110.953827
21
25.341048
0
LINE
8
Layer 1
10
110.953827
20
25.341048
11
110.571725
21
24.733058
0
LINE
8
Layer 1
10
110.571725
20
24.733058
11
110.066592
21
24.271250
0
LINE
8
Layer 1
10
110.066592
20
24.271250
11
108.431138
21
24.114222
0
LINE
8
Layer 1
10
108.431138
20
24.114222
11
106.986845
21
24.142154
0
LINE
8
Layer 1
10
106.986845
20
24.142154
11
105.719822
21
24.341569
0
LINE
8
Layer 1
10
105.719822
20
24.341569
11
104.616180
21
24.698990
0
LINE
8
Layer 1
10
104.616180
20
24.698990
11
103.662026
21
25.200940
0
LINE
8
Layer 1
10
103.662026
20
25.200940
11
102.843471
21
25.833940
0
LINE
8
Layer 1
10
102.843471
20
25.833940
11
102.146624
21
26.584514
0
LINE
8
Layer 1
10
102.146624
20
26.584514
11
101.557595
21
27.439185
0
LINE
8
Layer 1
10
101.557595
20
27.439185
11
100.647423
21
29.406907
0
LINE
8
Layer 1
10
100.647423
20
29.406907
11
100.001833
21
31.629287
0
LINE
8
Layer 1
10
100.001833
20
31.629287
11
99.059892
21
36.406750
0
LINE
8
Layer 1
10
99.059892
20
36.406750
11
98.364921
21
40.853075
0
LINE
8
Layer 1
10
98.364921
20
40.853075
11
97.669950
21
45.984675
0
LINE
8
Layer 1
10
97.669950
20
45.984675
11
96.964395
21
50.348987
0
LINE
8
Layer 1
10
96.964395
20
50.348987
11
96.604341
21
51.789485
0
LINE
8
Layer 1
10
96.604341
20
51.789485
11
96.237672
21
52.493450
0
LINE
8
Layer 1
10
96.237672
20
52.493450
11
95.214615
21
52.673367
0
LINE
8
Layer 1
10
95.214615
20
52.673367
11
93.979892
21
52.493450
0
LINE
8
Layer 1
10
93.979892
20
52.493450
11
93.093614
21
51.763730
0
LINE
8
Layer 1
10
93.093614
20
51.763730
11
92.304321
21
50.767404
0
LINE
8
Layer 1
10
92.304321
20
50.767404
11
91.606474
21
49.531549
0
LINE
8
Layer 1
10
91.606474
20
49.531549
11
90.994533
21
48.083245
0
LINE
8
Layer 1
10
90.994533
20
48.083245
11
90.006210
21
44.657599
0
LINE
8
Layer 1
10
90.006210
20
44.657599
11
89.295037
21
40.707094
0
LINE
8
Layer 1
10
89.295037
20
40.707094
11
88.816695
21
36.448355
0
LINE
8
Layer 1
10
88.816695
20
36.448355
11
88.526870
21
32.098009
0
LINE
8
Layer 1
10
88.526870
20
32.098009
11
88.335500
21
23.989000
0
LINE
8
Layer 1
10
88.335500
20
23.989000
11
88.335500
21
23.989000
 0 
ENDSEC
 0 
EOF