<?xml version="1.0" encoding="utf-8"?>
<!-- Generator: Adobe Illustrator 26.3.1, SVG Export Plug-In . SVG Version: 6.00 Build 0)  -->
<svg version="1.1" id="Layer_1" xmlns="http://www.w3.org/2000/svg" xmlns:xlink="http://www.w3.org/1999/xlink" x="0px" y="0px"
	 viewBox="0 0 512 396" style="enable-background:new 0 0 512 396;" xml:space="preserve">
<style type="text/css">
	.st0{fill-rule:evenodd;clip-rule:evenodd;fill:none;stroke:#000000;stroke-miterlimit:10;}
</style>
<image style="overflow:visible;enable-background:new    ;" width="512" height="396" id="Background" xlink:href="C7E1F372.png" >
</image>
<path id="Color_Fill_1" class="st0" d="M313,311h-56c-4-71.9-72-70.5-72,0h-63c-0.4-53.4-12.5-127.3,6-170
	c27.3-63,163.1-75.8,223-32c27.8,20.3,34,59.3,34,102c0,3.5,1.3,58,1,65c-0.1,3.5,8.2,7.1,9,11c0.6,9.4,0.4,19.4-5,23
	c-32.8,4.8-34.6-20.4-39-43c-3.3-17.1-6.5-54.4-10-57c-2.2-0.9-4.8-0.8-8,0C315.3,221.1,313.1,276.6,313,311z"/>
</svg>
